<?xml version="1.0" encoding="UTF-8" standalone="no"?>
<!-- Created with Inkscape (http://www.inkscape.org/) -->

<svg
   xmlns:dc="http://purl.org/dc/elements/1.1/"
   xmlns:cc="http://creativecommons.org/ns#"
   xmlns:rdf="http://www.w3.org/1999/02/22-rdf-syntax-ns#"
   xmlns:svg="http://www.w3.org/2000/svg"
   xmlns="http://www.w3.org/2000/svg"
   xmlns:sodipodi="http://sodipodi.sourceforge.net/DTD/sodipodi-0.dtd"
   xmlns:inkscape="http://www.inkscape.org/namespaces/inkscape"
   width="744.09448819"
   height="1052.3622047"
   id="svg2"
   version="1.1"
   inkscape:version="0.48.0 r9654"
   sodipodi:docname="New document 1">
  <defs
     id="defs4">
    <clipPath
       id="clipPath3039"
       clipPathUnits="userSpaceOnUse">
      <path
         id="path3041"
         d="M 0,0 677,0 677,208 0,208 0,0 z" />
    </clipPath>
  </defs>
  <sodipodi:namedview
     id="base"
     pagecolor="#ffffff"
     bordercolor="#666666"
     borderopacity="1.0"
     inkscape:pageopacity="0.0"
     inkscape:pageshadow="2"
     inkscape:zoom="0.35"
     inkscape:cx="375"
     inkscape:cy="520"
     inkscape:document-units="px"
     inkscape:current-layer="layer1"
     showgrid="false"
     inkscape:window-width="980"
     inkscape:window-height="735"
     inkscape:window-x="0"
     inkscape:window-y="0"
     inkscape:window-maximized="0" />
  <metadata
     id="metadata7">
    <rdf:RDF>
      <cc:Work
         rdf:about="">
        <dc:format>image/svg+xml</dc:format>
        <dc:type
           rdf:resource="http://purl.org/dc/dcmitype/StillImage" />
        <dc:title></dc:title>
      </cc:Work>
    </rdf:RDF>
  </metadata>
  <g
     inkscape:label="Layer 1"
     inkscape:groupmode="layer"
     id="layer1">
    <g
       transform="matrix(0.63720298,0,0,-0.63720298,163.67607,241.46468)"
       inkscape:label="Cognizant"
       id="g3031">
      <g
         id="g3033" />
      <g
         id="g3035">
        <g
           clip-path="url(#clipPath3039)"
           id="g3037">
          <path
             id="path3043"
             style="fill:#231f20;fill-opacity:1;fill-rule:evenodd;stroke:none"
             d="m 202.821,47.114 0,-1.451 4.083,0 0,-10.527 1.563,0 0,10.527 4.083,0 0,1.451 -9.729,0"
             inkscape:connector-curvature="0" />
          <path
             id="path3045"
             style="fill:#231f20;fill-opacity:1;fill-rule:evenodd;stroke:none"
             d="m 213.992,47.114 0,-11.978 1.561,0 0,10.163 3.364,-10.163 1.68,0 3.364,10.042 0,-10.042 1.562,0 0,11.978 -2.283,0 -3.483,-10.162 -3.364,10.162 -2.401,0"
             inkscape:connector-curvature="0" />
          <path
             id="path3047"
             style="fill:#231f20;fill-opacity:1;fill-rule:evenodd;stroke:none"
             d="M 104.115,207.776 C 46.824,207.776 0.347,161.304 0.347,103.942 0.347,46.66 46.824,0.186 104.115,0.186 c 57.37,0 103.848,46.474 103.848,103.756 0,57.362 -46.478,103.834 -103.848,103.834"
             inkscape:connector-curvature="0" />
          <path
             id="path3049"
             style="fill:#4f9bc4;fill-opacity:1;fill-rule:evenodd;stroke:none"
             d="m 112.264,44.482 c 0,-4.922 -2.179,-10.49 -8.149,-10.49 -5.972,0 -7.748,5.568 -7.748,10.49 l 0,14.924 c -15.491,7.1 -30.743,16.701 -44.621,28.562 l 0,-41.709 c 0,-30.26 23.884,-45.344 52.369,-45.344 27.677,0 51.883,14.52 52.771,43.647 -14.041,0.321 -29.29,3.227 -44.622,8.552 l 0,-8.632"
             inkscape:connector-curvature="0" />
          <path
             id="path3051"
             style="fill:#4f9bc4;fill-opacity:1;fill-rule:evenodd;stroke:none"
             d="m 140.345,81.03 -28.081,0 c 6.696,-3.553 13.153,-5.568 19.124,-5.568 6.536,0 9.038,2.18 8.957,5.568"
             inkscape:connector-curvature="0" />
          <path
             id="path3053"
             style="fill:#4f9bc4;fill-opacity:1;fill-rule:evenodd;stroke:none"
             d="M 76.357,136.051 C 57.959,135.97 71.192,118.06 83.7,104.425 87.816,99.828 92.092,95.633 96.367,92.001 l 0,37.676 c -1.047,0.647 -2.097,1.211 -3.145,1.696 -5.891,3.146 -11.458,4.678 -16.865,4.678"
             inkscape:connector-curvature="0" />
          <path
             id="path3055"
             style="fill:#4f9bc4;fill-opacity:1;fill-rule:evenodd;stroke:none"
             d="m 96.367,163.403 c 0,4.92 1.776,10.568 7.748,10.568 5.97,0 8.149,-5.648 8.149,-10.568 l 0,-11.296 c 8.877,-4.195 17.833,-9.359 26.466,-15.571 l 18.156,0 0,25.091 c 0,30.256 -24.61,45.422 -52.771,45.422 -26.79,0 -49.544,-13.392 -52.126,-40.178 13.635,-0.322 28.887,-2.985 44.378,-8.39 l 0,4.922"
             inkscape:connector-curvature="0" />
          <path
             id="path3057"
             style="fill:#42b23c;fill-opacity:1;fill-rule:evenodd;stroke:none"
             d="m 184.078,92.806 -49.382,-0.081 c 3.308,-4.357 5.649,-8.548 5.649,-11.695 l 16.541,0 0,-34.771 c 0,-0.566 0,-1.131 0,-1.697 0.887,0 1.775,0 2.582,0 17.188,0 30.098,3.388 35.503,10.891 5.407,7.745 2.824,19.928 -10.893,37.353"
             inkscape:connector-curvature="0" />
          <path
             id="path3059"
             style="fill:#42b23c;fill-opacity:1;fill-rule:evenodd;stroke:none"
             d="m 51.989,166.871 c -1.291,0.081 -2.581,0.081 -3.793,0.081 C 7.447,166.871 -1.186,143.958 34.56,104.506 40.046,98.618 45.775,93.051 51.746,87.968 l 0,73.659 c 0,1.855 0.08,3.551 0.243,5.244"
             inkscape:connector-curvature="0" />
          <path
             id="path3061"
             style="fill:#42b23c;fill-opacity:1;fill-rule:evenodd;stroke:none"
             d="m 112.264,152.107 c -5.325,2.42 -10.571,4.599 -15.897,6.374 l 0,-28.804 c 4.601,-2.661 8.957,-6.051 12.911,-10.165 l 49.545,0.082 c -6.456,6.373 -13.234,12.021 -20.093,16.942 l -26.466,0 0,15.571"
             inkscape:connector-curvature="0" />
          <path
             id="path3063"
             style="fill:#42b23c;fill-opacity:1;fill-rule:evenodd;stroke:none"
             d="m 112.264,53.114 0,27.916 c -5.245,2.742 -10.571,6.453 -15.897,10.971 l 0,-32.595 c 5.326,-2.341 10.572,-4.519 15.897,-6.292"
             inkscape:connector-curvature="0" />
          <path
             id="path3065"
             style="fill:#81c3ed;fill-opacity:1;fill-rule:evenodd;stroke:none"
             d="m 96.367,92.001 c -4.275,3.632 -8.551,7.827 -12.667,12.424 -12.508,13.635 -25.741,31.545 -7.343,31.626 5.407,0 10.974,-1.532 16.865,-4.678 1.048,-0.485 2.098,-1.049 3.145,-1.696 l 0,28.804 c -15.491,5.405 -30.743,8.068 -44.378,8.39 -0.163,-1.693 -0.243,-3.389 -0.243,-5.244 l 0,-73.659 C 65.624,76.107 80.876,66.506 96.367,59.406 l 0,32.595"
             inkscape:connector-curvature="0" />
          <path
             id="path3067"
             style="fill:#81c3ed;fill-opacity:1;fill-rule:evenodd;stroke:none"
             d="m 112.264,136.536 26.466,0 c -8.633,6.212 -17.589,11.376 -26.466,15.571 l 0,-15.571"
             inkscape:connector-curvature="0" />
          <path
             id="path3069"
             style="fill:#81c3ed;fill-opacity:1;fill-rule:evenodd;stroke:none"
             d="m 156.886,81.03 -16.541,0 c 0.081,-3.388 -2.421,-5.568 -8.957,-5.568 -5.971,0 -12.428,2.015 -19.124,5.568 l 0,-27.916 c 15.332,-5.325 30.581,-8.231 44.622,-8.552 0,0.566 0,1.131 0,1.697 l 0,34.771"
             inkscape:connector-curvature="0" />
          <path
             id="path3071"
             style="fill:#231f20;fill-opacity:1;fill-rule:evenodd;stroke:none"
             d="m 304.571,118.256 c 0.969,15.084 -4.955,23.056 -20.361,23.056 -15.3,0 -24.996,-6.248 -24.996,-28.227 l 0,-21.978 c 0,-30.184 14.868,-30.833 24.564,-30.833 5.064,0 22.408,0 21.979,24.584 l -10.236,0 c -0.106,-15.191 -9.265,-16.27 -12.282,-16.27 -7.649,0 -13.899,2.264 -13.899,21.334 l 0,20.793 c 0,13.36 1.942,15.3 2.264,16.161 0.323,1.077 3.554,6.033 11.743,6.033 2.047,0 6.679,-0.863 8.728,-3.34 2.046,-2.478 2.37,-6.895 2.262,-11.313 l 10.234,0 z m 33.614,-50.205 c -9.156,0 -11.419,6.356 -11.419,24.026 0,14.867 4.632,18.1 11.419,18.1 6.789,0 11.421,-3.233 11.421,-18.1 0,-17.67 -2.261,-24.026 -11.421,-24.026 z m 0,-7.237 c 11.529,0 20.687,3.467 20.687,27.494 0,15.942 -1.831,29.088 -20.687,29.088 -18.851,0 -20.685,-13.146 -20.685,-29.088 0,-24.027 9.158,-27.494 20.685,-27.494 z m 63.675,28.568 c 0,-7.538 0.322,-20.146 -10.343,-20.146 -6.571,0 -10.558,4.096 -10.558,21.547 0,7.22 0.324,19.285 10.341,19.285 11.098,0 10.56,-12.604 10.56,-20.686 z m -0.215,20.256 -0.216,0 c -2.479,5.279 -7.005,7.758 -12.713,7.758 -4.417,0 -17.023,-1.618 -17.023,-26.613 0,-16.16 2.91,-28.872 17.669,-28.872 4.741,0 9.696,2.476 11.959,6.785 l 0.324,0 0,-11.328 c 0,-5.604 -3.34,-9.375 -9.483,-9.375 -4.847,0 -8.187,2.801 -8.295,7.865 l -9.912,0 c -0.754,-10.02 7.435,-14.544 16.484,-14.544 11.959,0 20.039,2.908 20.039,15.083 l 0,59.921 -8.833,0 0,-6.68 z m 63.457,-47.727 0,37.708 c 0,10.774 -2.909,17.777 -14.544,17.777 -7.004,0 -11.097,-1.94 -14.546,-8.081 l -0.43,0 0,7.003 -9.374,0 c 0.324,-3.772 0.539,-7.542 0.539,-11.312 l 0,-43.095 8.835,0 0,32.213 c 0,7.432 1.401,16.053 11.096,16.053 7.542,0 9.589,-4.741 9.589,-10.558 l 0,-37.708 8.835,0 z m 15.298,0 8.834,0 0,54.407 -8.834,0 0,-54.407 z m -0.537,68.305 9.913,0 0,9.481 -9.913,0 0,-9.481 z m 54.298,-13.898 -32.426,0 0,-7.219 22.516,0 0,-0.216 -23.702,-38.676 0,-8.296 34.367,0 0,7.217 -24.779,0 24.024,39.109 0,8.081 z m 40.081,-27.365 c 0.861,-17.562 -5.819,-20.902 -11.206,-20.902 -5.924,0 -8.51,4.742 -8.51,10.021 0,11.526 11.313,10.772 19.716,10.881 z m 0.216,-27.042 9.696,0 c -0.645,4.201 -1.077,8.615 -1.077,12.928 l 0,26.18 c 0,9.158 -3.664,16.377 -17.671,16.377 -11.528,0 -17.993,-4.202 -18.422,-16.377 l 9.588,0 c -0.541,5.71 2.585,9.696 8.51,9.696 9.481,0 9.376,-7.865 9.16,-15.082 -12.388,0.321 -28.55,-0.43 -28.55,-16.916 0,-10.45 3.338,-17.903 14.865,-17.903 6.792,0 10.99,2.713 13.685,8.963 l 0.216,0 0,-7.866 z m 64.212,0 0,37.708 c 0,10.774 -2.911,17.777 -14.545,17.777 -7.005,0 -11.095,-1.94 -14.546,-8.081 l -0.429,0 0,7.003 -9.376,0 c 0.324,-3.772 0.54,-7.542 0.54,-11.312 l 0,-43.095 8.836,0 0,32.213 c 0,7.432 1.399,16.053 11.094,16.053 7.544,0 9.592,-4.741 9.592,-10.558 l 0,-37.708 8.834,0 z m 7.523,54.407 0,-6.68 8.959,0 0,-38.676 c 0,-6.251 3.773,-9.718 12.175,-9.718 2.909,0 5.819,0.667 8.73,0.883 l 0,6.785 c -1.942,-0.216 -3.343,-0.429 -3.99,-0.429 -8.081,0 -8.081,4.415 -8.081,7.864 l 0,33.291 11.852,0 0,6.68 -11.852,0 0,14.436 -8.834,-3.986 0,-10.45 -8.959,0"
             inkscape:connector-curvature="0" />
        </g>
      </g>
    </g>
  </g>
</svg>
