<?xml version="1.0" encoding="UTF-8" standalone="no"?>
<!-- Created with Inkscape (http://www.inkscape.org/) -->

<svg
   xmlns:dc="http://purl.org/dc/elements/1.1/"
   xmlns:cc="http://creativecommons.org/ns#"
   xmlns:rdf="http://www.w3.org/1999/02/22-rdf-syntax-ns#"
   xmlns:svg="http://www.w3.org/2000/svg"
   xmlns="http://www.w3.org/2000/svg"
   xmlns:sodipodi="http://sodipodi.sourceforge.net/DTD/sodipodi-0.dtd"
   xmlns:inkscape="http://www.inkscape.org/namespaces/inkscape"
   id="svg2"
   version="1.1"
   inkscape:version="0.47 r22583"
   width="300"
   height="230"
   xml:space="preserve"
   sodipodi:docname="FPM Brochure 4.pdf"><metadata
     id="metadata8"><rdf:RDF><cc:Work
         rdf:about=""><dc:format>image/svg+xml</dc:format><dc:type
           rdf:resource="http://purl.org/dc/dcmitype/StillImage" /><dc:title></dc:title></cc:Work></rdf:RDF></metadata><defs
     id="defs6"><inkscape:perspective
       sodipodi:type="inkscape:persp3d"
       inkscape:vp_x="0 : 0.5 : 1"
       inkscape:vp_y="0 : 1000 : 0"
       inkscape:vp_z="1 : 0.5 : 1"
       inkscape:persp3d-origin="0.5 : 0.33333333 : 1"
       id="perspective10" /><clipPath
       clipPathUnits="userSpaceOnUse"
       id="clipPath18"><path
         d="m 0.076,0 595.2,0 0,841.294 -595.2,0 L 0.076,0 z"
         id="path20" /></clipPath><clipPath
       clipPathUnits="userSpaceOnUse"
       id="clipPath32"><path
         d="m 0,0 595.276,0 0,841.89 L 0,841.89 0,0 z"
         id="path34" /></clipPath><clipPath
       clipPathUnits="userSpaceOnUse"
       id="clipPath58"><path
         d="m 59.225,728.625 290.22,0 0,48.039 -290.22,0 0,-48.039 z"
         id="path60" /></clipPath></defs><sodipodi:namedview
     pagecolor="#ffffff"
     bordercolor="#666666"
     borderopacity="1"
     objecttolerance="10"
     gridtolerance="10"
     guidetolerance="10"
     inkscape:pageopacity="0"
     inkscape:pageshadow="2"
     inkscape:window-width="1280"
     inkscape:window-height="722"
     id="namedview4"
     showgrid="false"
     inkscape:zoom="1.7940585"
     inkscape:cx="141.69033"
     inkscape:cy="115.83408"
     inkscape:window-x="-8"
     inkscape:window-y="20"
     inkscape:window-maximized="1"
     inkscape:current-layer="g12" /><g
     id="g12"
     inkscape:groupmode="layer"
     inkscape:label="FPM Brochure 4"
     transform="matrix(1.25,0,0,-1.25,-74.032368,969.5855)"><g
       id="g4367"
       transform="matrix(4.146293,0,0,4.146293,-184.11246,-2427.6394)"><path
         d="m 63.158,733.1182 c 0,-0.731 0.385,-1.553 1.05,-2.282 l 0.246,0.271 c -0.421,0.42 -0.668,0.936 -0.668,1.418 0,0.413 0.316,0.761 0.668,0.761 l 0.77,0 0,-1.627 0,-0.409 0.734,-0.587 0,0.996 0,3.042 0.771,0 -0.417,0.761 -3.962,0 0.424,-0.761 2.45,0 0,-0.655 -1.158,0 c -0.49,0 -0.908,-0.415 -0.908,-0.928"
         style="fill:#000000;fill-opacity:1;fill-rule:evenodd;stroke:none"
         id="path614" /><path
         d="m 65.4682,735.4623 0.319,0 c -0.282,0.48 -0.562,0.964 -0.879,1.418 -0.353,0.551 -0.807,0.898 -1.227,0.898 -0.105,0 -0.211,-0.035 -0.312,-0.071 l 0.348,-0.827 c 0.177,0.103 0.316,0.131 0.384,0.131 0.247,0 0.454,-0.131 0.596,-0.341 l 0.771,-1.208 z"
         style="fill:#000000;fill-opacity:1;fill-rule:evenodd;stroke:none"
         id="path618" /><path
         d="m 66.8365,733.6686 c 0.418,-1.384 1.193,-2.281 1.96,-2.281 0.35,0 0.669,0.349 0.669,0.761 0,0.31 -0.174,0.685 -0.423,1.034 l 1.054,0 0,-1.524 0,-0.408 0.736,-0.588 0,0.996 0,3.042 0.767,0 -0.419,0.761 -5.009,0 0.419,-0.761 3.506,0 0,-0.655 -1.823,0 -0.105,-0.173 c 0.349,-0.276 0.559,-0.728 0.559,-1.109 0,-0.239 -0.139,-0.411 -0.352,-0.411 -0.485,0 -0.979,0.585 -1.259,1.45 l -0.28,-0.134 z"
         style="fill:#000000;fill-opacity:1;fill-rule:evenodd;stroke:none"
         id="path622" /><path
         d="m 71.4284,734.701 0.735,0 0,-3.042 0,-0.409 0.733,-0.587 0,0.996 0,3.042 0.769,0 -0.418,0.761 -0.455,0 c -0.211,0.173 -0.314,0.447 -0.314,0.725 0,0.587 0.699,1.105 1.574,1.072 1.685,0 3.226,-0.485 4.417,-1.453 l 0.174,0.137 c -1.262,1.212 -3.047,1.835 -4.978,1.835 -1.048,0 -1.854,-0.519 -1.854,-1.176 0,-0.482 0.212,-0.895 0.562,-1.14 l -1.367,0 0.422,-0.761 z"
         style="fill:#000000;fill-opacity:1;fill-rule:evenodd;stroke:none"
         id="path626" /><path
         d="m 75.455,730.5901 0.351,0.28 -1.193,1.279 c 0.314,0.1 0.529,0.409 0.598,0.789 0.279,-0.38 0.595,-0.586 0.806,-0.586 0.213,0 0.418,0.036 0.558,0.172 l 0,0.796 c -0.14,-0.175 -0.382,-0.273 -0.701,-0.273 -0.247,0 -0.453,0.071 -0.627,0.207 l 0,1.447 1.258,0 -0.422,0.761 -3.012,0 0.424,-0.761 1.015,0 0,-1.07 c 0,-0.169 -0.069,-0.311 -0.14,-0.377 -0.14,0.136 -0.282,0.237 -0.388,0.237 -0.14,0 -0.243,-0.133 -0.243,-0.309 0,-0.244 0.175,-0.624 0.491,-1.033 l 1.225,-1.559 z"
         style="fill:#000000;fill-opacity:1;fill-rule:evenodd;stroke:none"
         id="path630" /><path
         d="m 78.1529,735.4623 -2.245,0 0.423,-0.761 1.822,0 0,0.761 z m -1.469,-2.279 c 0,-0.724 0.836,-1.656 1.469,-1.656 l 0,0.651 c -0.106,0 -0.209,-0.029 -0.282,-0.029 -0.421,0 -0.733,0.31 -0.733,0.654 0,0.414 0.455,0.759 1.015,0.759 l 0,0.655 c -0.106,0.038 -0.244,0.076 -0.349,0.076 -0.63,0 -1.12,-0.49 -1.12,-1.11 m 1.469,-1.656 c 0.281,0 0.634,0.172 1.017,0.515 l 0,-0.383 0,-0.409 0.735,-0.587 0,0.996 0,3.042 0.774,0 -0.422,0.761 -2.104,0 0,-0.761 1.017,0 0,-1.276 c -0.316,0.413 -0.665,0.692 -1.017,0.792 l 0,-0.655 c 0.316,0 0.667,-0.204 1.017,-0.553 -0.316,-0.415 -0.665,-0.686 -1.017,-0.831 l 0,-0.651 z"
         style="fill:#000000;fill-opacity:1;fill-rule:evenodd;stroke:none"
         id="path634" /><path
         d="m 82.3474,733.1182 c 0,-0.486 0.452,-1.179 0.764,-1.145 0.069,0 0.174,0.139 0.174,0.311 l 0,0.241 c 0,0.107 0.069,0.213 0.143,0.213 l 0.938,0 0,-1.079 0,-0.409 0.733,-0.587 0,0.996 0,3.042 0.767,0 -0.418,0.761 -3.322,0 -0.059,-0.761 2.299,0 0,-1.21 -1.673,0 c -0.173,0 -0.346,-0.172 -0.346,-0.373"
         style="fill:#000000;fill-opacity:1;fill-rule:evenodd;stroke:none"
         id="path638" /><path
         d="m 85.6934,734.701 0.696,0 0,-3.042 0,-0.409 0.732,-0.587 0,0.996 0,3.042 0.766,0 -0.418,0.761 -2.194,0 0.418,-0.761 z"
         style="fill:#000000;fill-opacity:1;fill-rule:evenodd;stroke:none"
         id="path642" /><path
         d="m 89.4927,735.4623 -2.196,0 0.419,-0.761 1.777,0 0,0.761 z m -1.432,-2.279 c 0,-0.724 0.769,-1.656 1.432,-1.656 l 0,0.651 c -0.107,0 -0.215,-0.029 -0.314,-0.029 -0.384,0 -0.698,0.31 -0.698,0.654 0,0.414 0.454,0.759 1.012,0.759 l 0,0.655 c -0.107,0.038 -0.249,0.076 -0.349,0.076 -0.628,0 -1.083,-0.49 -1.083,-1.11 m 1.432,-1.656 c 0.278,0 0.628,0.172 0.975,0.515 l 0,-0.383 0,-0.409 0.765,-0.587 0,0.996 0,3.042 0.735,0 -0.421,0.761 -2.054,0 0,-0.761 0.975,0 0,-1.276 c -0.279,0.413 -0.628,0.692 -0.975,0.792 l 0,-0.655 c 0.311,0 0.663,-0.204 0.975,-0.553 -0.279,-0.415 -0.664,-0.686 -0.975,-0.831 l 0,-0.651 z"
         style="fill:#000000;fill-opacity:1;fill-rule:evenodd;stroke:none"
         id="path646" /><path
         d="m 93.0461,732.8027 c 0.138,0.135 0.43,0.341 0.672,0.341 l 0.36,0.063 -0.061,0.596 c -0.777,0.062 -0.928,0.227 -0.928,0.227 -0.273,0.18 -0.42,0.372 -0.427,0.535 -0.006,0.247 0.141,0.486 0.384,0.582 l 0,0.56 -0.071,0 c -0.484,0 -0.835,-0.416 -0.835,-0.895 0,-0.385 0.318,-0.799 0.835,-1.143 -0.416,-0.138 -0.693,-0.451 -0.693,-0.794 0,-0.416 0.349,-0.902 0.764,-1.175 l 0,0.479 c -0.135,0.071 -0.208,0.174 -0.208,0.318 0,0.098 0.073,0.241 0.208,0.306 m 0.21,2.386 c -0.072,0 -0.141,0 -0.21,-0.042 l 0,0.56 m 0,-4.007 c 0.21,-0.135 0.417,-0.21 0.626,-0.21 0.418,0 0.841,0.21 1.153,0.553 l 0,-0.384 0,-0.408 0.768,-0.588 0,0.996 0,3.043 0.731,0 -0.418,0.76 -1.816,0 0.423,-0.76 0.312,0 0,-1.655 c -0.42,-0.588 -1.013,-0.934 -1.536,-0.934 -0.105,0 -0.174,0 -0.243,0.066 l 0,-0.479 z"
         style="fill:#000000;fill-opacity:1;fill-rule:evenodd;stroke:none"
         id="path650" /><path
         d="m 96.1511,734.701 0.695,0 0,-3.042 0,-0.409 0.766,-0.587 0,0.996 0,3.042 0.732,0 -0.418,0.761 -0.557,0 c -0.175,1.14 -0.801,2.004 -1.497,2.004 -0.492,0 -0.876,-0.483 -0.876,-1.04 0,-0.38 0.071,-0.65 0.212,-0.86 l 0.278,0 c -0.033,0.141 -0.069,0.311 -0.069,0.519 0,0.378 0.28,0.689 0.661,0.657 0.417,0 0.803,-0.521 0.907,-1.28 l -1.256,0 0.422,-0.761 z"
         style="fill:#000000;fill-opacity:1;fill-rule:evenodd;stroke:none"
         id="path654" /><path
         d="m 98.5895,733.1182 c 0,-0.731 0.385,-1.553 1.045,-2.282 l 0.244,0.271 c -0.417,0.42 -0.699,0.936 -0.665,1.418 0,0.413 0.282,0.761 0.665,0.761 l 0.731,0 0,-1.627 0,-0.409 0.767,-0.587 0,0.996 0,3.042 0.732,0 -0.418,0.761 -3.905,0 0.419,-0.761 2.405,0 0,-0.655 -1.114,0 c -0.521,0 -0.906,-0.415 -0.906,-0.928"
         style="fill:#000000;fill-opacity:1;fill-rule:evenodd;stroke:none"
         id="path658" /><path
         d="m 102.2513,732.8752 c 0,-0.379 0.731,-1.217 1.044,-1.217 0.104,0 0.173,0.142 0.173,0.314 l 0,0.381 0.626,0 0,0.765 -0.626,0 0,1.583 0.626,0 0,0.761 -2.577,0 0.416,-0.761 0.769,0 0,-1.583 -0.25,0 c -0.098,0 -0.201,-0.109 -0.201,-0.243 m 1.843,-0.522 0.626,0 0,-0.695 0,-0.407 0.734,-0.589 0,0.996 0,3.043 0.767,0 -0.418,0.761 -1.709,0 0,-0.761 0.626,0 0,-1.583 -0.626,0 0,-0.765 z"
         style="fill:#000000;fill-opacity:1;fill-rule:evenodd;stroke:none"
         id="path662" /><path
         d="m 107.9981,730.5901 0.35,0.28 -1.184,1.279 c 0.312,0.1 0.521,0.409 0.593,0.789 0.277,-0.38 0.591,-0.586 0.802,-0.586 0.205,0 0.416,0.036 0.555,0.172 l 0,0.796 c -0.103,-0.175 -0.383,-0.273 -0.697,-0.273 -0.244,0 -0.451,0.071 -0.627,0.207 l 0,1.447 1.257,0 -0.418,0.761 -2.998,0 0.415,-0.761 1.012,0 0,-1.07 c 0,-0.169 -0.035,-0.311 -0.137,-0.377 -0.141,0.136 -0.283,0.237 -0.384,0.237 -0.143,0 -0.244,-0.133 -0.244,-0.309 0,-0.244 0.174,-0.624 0.521,-1.033 l 1.184,-1.559 z"
         style="fill:#000000;fill-opacity:1;fill-rule:evenodd;stroke:none"
         id="path666" /><path
         d="m 109.2537,733.1182 c 0,-0.731 0.383,-1.553 1.046,-2.282 l 0.244,0.271 c -0.419,0.42 -0.662,0.936 -0.662,1.418 0,0.413 0.313,0.761 0.662,0.761 l 0.766,0 0,-1.627 0,-0.409 0.732,-0.587 0,0.996 0,3.042 0.769,0 -0.42,0.761 -3.943,0 0.423,-0.761 2.439,0 0,-0.655 -1.115,0 c -0.522,0 -0.941,-0.415 -0.941,-0.928"
         style="fill:#000000;fill-opacity:1;fill-rule:evenodd;stroke:none"
         id="path670" /><path
         d="m 111.5532,728.6247 c 0.7,0 1.29,0.483 1.29,1.069 0,0.517 -0.66,1.208 -1.149,1.208 -0.243,0 -0.523,-0.137 -0.768,-0.411 l 0.489,-0.517 c 0.138,0.271 0.346,0.411 0.559,0.411 0.136,0 0.279,-0.105 0.279,-0.243 0,-0.482 -0.383,-0.861 -0.906,-0.896 -0.734,0 -1.43,0.482 -1.919,1.245 l -0.209,-0.211 c 0.662,-1.034 1.534,-1.655 2.334,-1.655"
         style="fill:#000000;fill-opacity:1;fill-rule:evenodd;stroke:none"
         id="path674" /><path
         id="path676"
         style="fill:#000000;fill-opacity:1;fill-rule:nonzero;stroke:none"
         d="m 79.304,743.324 -0.916,0 0,6.885 0.916,0 0,-6.885 z" /><path
         id="path678"
         style="fill:#000000;fill-opacity:1;fill-rule:nonzero;stroke:none"
         d="m 81.8,743.324 -0.916,0 0,6.885 0.916,0 0,-6.885 z" /><path
         d="m 84.616,750.2088 2.17,-5.785 2.178,5.785 1.254,0 0,-6.885 -0.868,0 0,5.729 -0.019,0 -2.15,-5.729 -0.781,0 -2.15,5.729 -0.02,0 0,-5.729 -0.867,0 0,6.885 1.253,0 z"
         style="fill:#000000;fill-opacity:1;fill-rule:nonzero;stroke:none"
         id="path682" /><path
         d="m 94.9526,744.0962 c 0.405,0 0.721,0.109 0.949,0.328 0.228,0.217 0.342,0.52 0.342,0.906 0,0.224 -0.042,0.412 -0.125,0.559 -0.083,0.148 -0.195,0.265 -0.332,0.352 -0.138,0.086 -0.298,0.148 -0.478,0.183 -0.18,0.036 -0.366,0.054 -0.559,0.054 l -2.092,0 0,-2.382 2.295,0 z m -0.463,3.152 c 0.52,0 0.895,0.093 1.122,0.275 0.228,0.185 0.343,0.458 0.343,0.825 0,0.244 -0.038,0.437 -0.115,0.578 -0.077,0.143 -0.184,0.252 -0.319,0.327 -0.135,0.079 -0.29,0.128 -0.468,0.152 -0.176,0.022 -0.365,0.032 -0.563,0.032 l -1.832,0 0,-2.189 1.832,0 z m -0.251,2.961 c 0.148,0 0.306,-10e-4 0.477,-0.004 0.17,-0.004 0.339,-0.014 0.506,-0.03 0.167,-0.015 0.324,-0.04 0.468,-0.073 0.144,-0.033 0.269,-0.08 0.372,-0.145 0.224,-0.134 0.416,-0.32 0.573,-0.558 0.158,-0.238 0.236,-0.53 0.236,-0.878 0,-0.365 -0.088,-0.684 -0.265,-0.949 -0.176,-0.267 -0.429,-0.465 -0.757,-0.592 l 0,-0.02 c 0.424,-0.09 0.749,-0.284 0.974,-0.579 0.225,-0.295 0.337,-0.657 0.337,-1.079 0,-0.251 -0.044,-0.496 -0.135,-0.734 -0.09,-0.237 -0.224,-0.448 -0.4,-0.63 -0.176,-0.184 -0.396,-0.332 -0.655,-0.445 -0.26,-0.113 -0.561,-0.169 -0.902,-0.169 l -3.326,0 0,6.885 2.497,0 z"
         style="fill:#000000;fill-opacity:1;fill-rule:nonzero;stroke:none"
         id="path686" /><path
         d="m 87.9361,757.5153 c -0.551,-0.011 -1.164,-0.004 -1.582,-0.014 -0.16,0.057 -0.077,0.242 -0.06,0.348 0.132,0.721 0.247,1.276 0.025,2.093 -0.185,0.839 -0.825,1.892 -1.315,2.568 -0.954,1.262 -1.503,2.15 -1.812,3.287 -0.321,1.073 -0.248,2.185 0.095,3.133 0.56,1.557 1.504,2.637 1.62,2.729 0.31,0.36 0.38,0.436 1.082,0.422 2.109,0.199 4.837,-0.035 6.893,-0.397 0.117,-0.02 0.205,-0.037 0.194,-0.178 -0.006,-0.078 -0.04,-0.155 -0.088,-0.172 -0.429,-0.064 -1.586,-0.219 -2.769,-0.862 -1.223,-0.61 -2.625,-1.944 -2.981,-3.782 -0.087,-0.604 -0.105,-1.27 0.078,-2.253 0.128,-0.69 0.483,-1.754 0.76,-2.498 0.171,-0.684 0.436,-1.207 0.42,-2.511 -0.014,-0.408 -0.145,-1 -0.282,-1.44 -0.116,-0.43 -0.192,-0.461 -0.278,-0.473"
         style="fill:#b01116;fill-opacity:1;fill-rule:evenodd;stroke:none"
         id="path690" /><path
         d="m 83.7819,757.0521 c -0.527,-0.158 -0.992,-0.3 -1.391,-0.421 -0.17,0.011 -0.14,0.213 -0.152,0.321 -0.114,0.758 -0.142,1.28 -0.611,1.982 -0.37,0.564 -1.046,1.204 -2.287,2.196 -1.255,0.962 -2.031,1.598 -2.631,2.614 -0.595,0.947 -0.755,1.983 -0.676,2.989 0.176,1.682 0.716,2.768 0.758,2.882 0.056,0.158 0.153,0.39 0.41,0.486 1.949,0.816 4.828,1.532 7.099,1.854 0.232,0.025 0.335,0.048 0.366,-0.069 0.017,-0.069 0.002,-0.145 -0.044,-0.178 -0.393,-0.169 -1.5,-0.631 -2.443,-1.552 -0.688,-0.669 -1.88,-2.326 -1.74,-4.275 0.096,-0.713 0.222,-1.46 0.713,-2.293 0.356,-0.605 0.952,-1.527 1.418,-2.17 0.347,-0.614 0.912,-1.115 1.243,-2.375 0.094,-0.395 0.127,-1.002 0.111,-1.462 0.003,-0.446 -0.063,-0.495 -0.143,-0.529"
         style="fill:#b01116;fill-opacity:1;fill-rule:evenodd;stroke:none"
         id="path694" /><path
         d="m 79.9882,755.292 c -0.451,-0.315 -0.925,-0.655 -1.266,-0.898 -0.139,-0.023 -0.185,0.189 -0.231,0.288 -0.347,0.685 -0.586,1.097 -1.06,1.572 -0.381,0.421 -1.352,0.93 -2.842,1.478 -1.493,0.519 -2.441,0.931 -3.293,1.745 -0.745,0.708 -1.267,1.498 -1.565,2.549 -0.461,1.675 -0.039,3.057 -0.002,3.296 0.031,0.13 0.025,0.337 0.276,0.583 1.67,1.395 4.168,2.849 6.185,3.78 0.222,0.077 0.309,-0.193 0.138,-0.338 -0.319,-0.285 -1.24,-1.027 -1.746,-2.274 -0.402,-0.775 -1.139,-2.575 -0.385,-4.465 0.238,-0.652 0.625,-1.307 1.339,-1.973 0.513,-0.478 1.385,-1.147 2.028,-1.612 0.523,-0.474 1.216,-0.77 1.908,-1.878 0.213,-0.346 0.39,-0.845 0.519,-1.287 0.143,-0.422 0.063,-0.511 -0.003,-0.566"
         style="fill:#b01116;fill-opacity:1;fill-rule:evenodd;stroke:none"
         id="path698" /><path
         d="m 76.8913,752.6123 c -0.343,-0.431 -0.711,-0.863 -0.969,-1.193 -0.125,-0.061 -0.23,0.131 -0.302,0.211 -0.527,0.558 -0.84,0.903 -1.43,1.226 -0.485,0.294 -1.588,0.52 -3.172,0.623 -1.558,0.112 -2.578,0.153 -3.653,0.638 -0.917,0.469 -1.616,1.046 -2.201,1.968 -0.87,1.529 -0.987,2.625 -1.032,3.14 -0.079,0.296 0.048,0.509 0.201,0.736 0.892,1.291 2.926,3.731 4.765,5.2 0.192,0.137 0.36,-0.103 0.238,-0.29 -0.129,-0.277 -0.735,-0.947 -1.007,-2.592 -0.149,-0.884 -0.316,-2.765 0.899,-4.392 0.412,-0.556 0.997,-1.012 1.87,-1.448 0.629,-0.314 1.656,-0.686 2.404,-0.948 0.635,-0.305 1.358,-0.487 2.293,-1.387 0.303,-0.271 0.633,-0.662 0.883,-1.049 0.247,-0.36 0.246,-0.364 0.213,-0.443"
         style="fill:#b01116;fill-opacity:1;fill-rule:evenodd;stroke:none"
         id="path702" /><path
         d="m 74.7297,749.0918 c -0.181,-0.516 -0.353,-0.865 -0.571,-1.355 -0.123,-0.141 -0.208,-0.02 -0.303,0.026 -0.653,0.44 -0.917,0.571 -1.623,0.78 -0.582,0.115 -1.496,0.159 -3.26,-0.312 -1.55,-0.264 -2.562,-0.624 -3.67,-0.483 -1.12,0.141 -1.897,0.507 -2.727,1.242 -1.249,1.247 -1.78,2.166 -2.012,2.602 -0.073,0.118 -0.104,0.199 -0.095,0.262 0.487,1.973 2.013,5.119 3.187,7.011 0.142,0.188 0.339,-0.002 0.279,-0.216 -0.075,-0.309 -0.424,-1.126 -0.25,-2.757 0.113,-0.902 0.47,-2.827 2.227,-3.982 0.56,-0.408 1.254,-0.708 2.229,-0.832 0.695,-0.09 1.797,-0.098 2.577,-0.186 0.697,-0.101 1.418,-0.046 2.567,-0.649 0.346,-0.192 0.848,-0.543 1.115,-0.769 0.342,-0.269 0.338,-0.295 0.33,-0.382"
         style="fill:#b01116;fill-opacity:1;fill-rule:evenodd;stroke:none"
         id="path706" /><path
         d="m 73.5859,745.091 c -0.01,-0.538 -0.05,-1.063 -0.082,-1.597 -0.019,-0.073 -0.174,-0.081 -0.267,-0.027 -0.752,0.233 -1.104,0.392 -1.831,0.359 -0.526,-0.038 -1.017,-0.044 -3.105,-1.157 -1.658,-0.954 -1.466,-0.855 -2.076,-1.164 0,0 -1.847,-0.929 -3.898,-0.175 -2.123,0.869 -3.088,2.283 -3.101,2.283 0.06,2.328 0.285,5.057 0.998,7.487 0.067,0.224 0.375,0.165 0.35,-0.104 0.005,0 0.042,-1.64 0.778,-3.107 0.422,-0.705 1.142,-2.115 3.186,-2.723 0.67,-0.164 1.462,-0.203 2.408,-0.075 0.696,0.094 1.443,0.373 2.204,0.565 0.676,0.093 1.385,0.302 2.673,0.138 0.391,-0.056 1.014,-0.296 1.344,-0.416 0.416,-0.13 0.418,-0.246 0.419,-0.287"
         style="fill:#b01116;fill-opacity:1;fill-rule:evenodd;stroke:none"
         id="path710" /><path
         d="m 91.9228,756.8467 c -0.529,0.157 -0.986,0.238 -1.388,0.353 -0.135,0.103 0.03,0.25 0.078,0.348 0.37,0.63 0.649,1.27 0.665,2.129 -0.023,0.931 -0.372,2.041 -0.614,2.833 -0.411,1.555 -0.706,2.562 -0.646,3.7 0.023,1.118 0.358,2.138 0.975,2.938 0.963,1.363 2.255,1.997 2.393,2.089 0.33,0.189 0.466,0.271 0.627,0.22 2.819,-0.619 5.293,-1.775 6.794,-2.594 0.114,-0.063 0.386,-0.163 0.345,-0.335 -0.024,-0.096 -0.142,-0.165 -0.206,-0.149 -0.421,0.086 -1.547,0.276 -2.879,0.035 -1.358,-0.216 -3.124,-0.984 -3.997,-2.71 -0.268,-0.549 -0.431,-1.076 -0.557,-2.066 -0.089,-0.697 -0.105,-1.818 -0.069,-2.612 -0.039,-0.732 0.112,-1.599 -0.339,-2.738 -0.138,-0.383 -0.341,-0.821 -0.607,-1.196 -0.231,-0.418 -0.446,-0.268 -0.575,-0.245"
         style="fill:#b01116;fill-opacity:1;fill-rule:evenodd;stroke:none"
         id="path714" /><path
         d="m 95.9906,754.7228 c -0.459,0.305 -0.731,0.537 -1.079,0.766 -0.099,0.14 -0.061,0.161 0.014,0.24 0.538,0.493 1.028,0.803 1.297,1.618 0.405,1.03 0.398,2.261 0.402,3.091 0.067,1.606 -0.004,2.488 0.307,3.573 0.351,1.062 0.989,2.039 1.815,2.62 1.324,1.02 2.71,1.31 2.868,1.358 0.466,0.159 0.602,0.099 0.969,-0.123 0.826,-0.501 4.302,-2.997 5.62,-4.547 0.169,-0.236 -0.118,-0.347 -0.208,-0.291 -0.377,0.204 -1.395,0.718 -2.74,0.882 -1.36,0.194 -3.276,0.136 -4.62,-1.255 -0.418,-0.444 -0.678,-1.139 -1.091,-2.047 -0.292,-0.641 -0.537,-1.793 -0.736,-2.561 -0.253,-0.689 -0.501,-1.628 -1.285,-2.349 -0.244,-0.323 -0.608,-0.677 -0.974,-0.958 -0.345,-0.331 -0.441,-0.077 -0.559,-0.017"
         style="fill:#b01116;fill-opacity:1;fill-rule:evenodd;stroke:none"
         id="path718" /><path
         d="m 98.9564,751.7947 c -0.337,0.436 -0.52,0.645 -0.777,0.975 -0.049,0.163 -0.007,0.17 0.089,0.22 0.548,0.369 1.186,0.653 1.796,1.282 0.712,0.847 1.099,2.015 1.367,2.801 0.479,1.533 0.792,2.357 1.433,3.289 0.672,0.893 1.604,1.647 2.573,1.934 1.579,0.543 3.002,0.408 3.168,0.402 0.379,-0.039 0.425,-0.119 0.525,-0.254 1.387,-1.509 3.146,-4.401 4.195,-6.339 0.083,-0.28 -0.223,-0.293 -0.291,-0.211 -0.293,0.366 -1.045,1.195 -2.267,1.744 -1.616,0.815 -2.737,1.181 -4.859,-0.006 -0.539,-0.287 -0.974,-0.601 -1.656,-1.331 -0.48,-0.512 -1.113,-1.526 -1.546,-2.19 -0.462,-0.572 -0.996,-1.288 -1.904,-1.849 -0.336,-0.229 -0.827,-0.481 -1.261,-0.631 -0.433,-0.202 -0.493,0.07 -0.585,0.164"
         style="fill:#b01116;fill-opacity:1;fill-rule:evenodd;stroke:none"
         id="path722" /><path
         d="m 100.9618,748.2003 c -0.173,0.552 -0.309,0.797 -0.456,1.164 -0.044,0.15 0.033,0.19 0.149,0.195 0.636,0.118 1.27,0.227 2.009,0.586 0.928,0.602 1.639,1.572 2.125,2.247 0.909,1.232 1.438,2.007 2.353,2.691 0.904,0.66 1.983,1.108 2.993,1.099 1.668,0.058 3.003,-0.498 3.158,-0.552 0.351,-0.149 0.428,-0.192 0.485,-0.351 0.82,-1.531 1.891,-5.345 2.103,-7.289 0,-0.291 -0.299,-0.214 -0.339,-0.116 -0.172,0.436 -0.609,1.545 -1.617,2.429 -1.027,0.903 -2.751,1.764 -4.691,1.342 -0.599,-0.118 -1.133,-0.29 -1.973,-0.831 -0.592,-0.381 -1.516,-1.135 -2.146,-1.601 -0.586,-0.397 -1.218,-0.805 -2.292,-1.124 -0.387,-0.121 -0.87,-0.151 -1.33,-0.211 -0.473,-0.067 -0.471,0.204 -0.531,0.322"
         style="fill:#b01116;fill-opacity:1;fill-rule:evenodd;stroke:none"
         id="path726" /><path
         d="m 101.7539,743.9471 c 0,0.579 -0.005,0.837 -0.035,1.231 0.003,0.158 0.088,0.172 0.201,0.141 0.642,-0.076 1.227,-0.148 2.04,-0.024 1.065,0.297 1.98,1.063 2.645,1.561 1.236,0.905 1.973,1.593 3.05,1.973 1.06,0.331 2.305,0.328 3.293,0.073 1.581,-0.484 2.653,-1.464 2.783,-1.563 0.19,-0.12 0.23,-0.355 0.237,-0.524 0.299,-2.249 0.279,-4.965 -0.014,-7.233 -0.041,-0.1 -0.107,-0.137 -0.177,-0.128 -0.083,0.006 -0.143,0.061 -0.158,0.131 -0.056,0.459 -0.203,1.29 -0.894,2.437 -0.709,1.169 -2.059,2.583 -4.036,2.763 -0.608,0.065 -1.198,0.068 -2.162,-0.195 -0.68,-0.187 -1.786,-0.609 -2.508,-0.891 -0.677,-0.202 -1.403,-0.431 -2.522,-0.414 -0.405,0 -0.876,0.117 -1.333,0.196 -0.473,0.071 -0.392,0.331 -0.41,0.466"
         style="fill:#b01116;fill-opacity:1;fill-rule:evenodd;stroke:none"
         id="path730" /></g></g></svg>