<?xml version="1.0" encoding="utf-8"?>
<!-- Generator: Adobe Illustrator 14.0.0, SVG Export Plug-In . SVG Version: 6.00 Build 43363)  -->
<!DOCTYPE svg PUBLIC "-//W3C//DTD SVG 1.1//EN" "http://www.w3.org/Graphics/SVG/1.1/DTD/svg11.dtd">
<svg version="1.1" id="Layer_1" xmlns:svg="http://www.w3.org/2000/svg"
	 xmlns="http://www.w3.org/2000/svg" xmlns:xlink="http://www.w3.org/1999/xlink" x="0px" y="0px" width="99.358px"
	 height="35.684px" viewBox="-11.544 -10.87 99.358 35.684" enable-background="new -11.544 -10.87 99.358 35.684"
	 xml:space="preserve">
<rect id="rect236" y="0.167" fill="none" width="76" height="12.666"/>
<path id="path238" d="M74.844,4.59c-0.027,0.249-0.277,0.208-0.277,0.208h-0.25l0.07-0.431h0.25
	C74.637,4.367,74.844,4.367,74.844,4.59z M75.066,4.604c0.027-0.334-0.305-0.416-0.305-0.416H74.15L73.941,5.52h0.25l0.084-0.541
	h0.166l0.209,0.498h0.291l-0.25-0.498C74.719,4.979,75.025,4.979,75.066,4.604z M39.43,5.45c1.764,0.555,0.168,5.759-1.692,5.12
	C35.795,9.862,37.682,4.923,39.43,5.45z M58.053,5.436c1.775,0.556,0.209,5.787-1.65,5.135C54.654,9.946,56.277,4.867,58.053,5.436z
	 M74.469,5.852c-1.4,0-1.4-2.039,0-2.039C75.885,3.813,75.885,5.852,74.469,5.852z M28.107,7.031c0-0.083,0.111-3.469-3.247-3.649
	c-7.008-0.347-8.243,9.548-2.415,9.604c4.538,0.042,5.107-3.607,5.107-3.663H24.61c-0.083,0.139-0.555,1.263-1.582,1.263
	c-2.067,0-0.583-4.954,1.208-5.009c1.082-0.042,0.915,1.387,0.915,1.456L28.107,7.031L28.107,7.031z M52.1,6.268
	c-0.068-0.181,0.875-2.97-3.803-2.97c-2.15,0-4.314,0.708-4.592,2.54c-0.389,2.553,2.648,3.038,3.482,3.232
	c1.721,0.375,1.471,1.749,0,1.805c-1.832,0.057-1.307-1.416-1.307-1.416h-5.549c0,0,2.844-0.957,2.857-0.943
	c0.541-1.691,0.223-5.064-3.58-5.218C33.226,3.021,31.046,12.332,37,12.93c4.191,0.401,5.496-2.983,5.496-2.983
	s-0.625,2.997,4.316,3.053c4.619,0.056,5.078-3.012,5.021-3.664c-0.18-2.317-2.18-2.373-4.023-2.761
	c-1.498-0.319-1.109-1.457,0.055-1.485c1.473-0.026,1.084,1.181,1.084,1.181h3.15V6.268z M19.323,3.591h-3.247L14.05,12.68h3.33
	L19.323,3.591z M35.018,3.479c-1.582,0.015-2.456,0.681-2.858,1.181l0.25-1.027l-3.15,0.125l-2.081,8.909h3.372l0.708-3.553
	c0.264-1.332,0.763-2.525,3.094-2.637L35.018,3.479z M58.246,3.299c-6.438-0.389-8.59,9.242-2.191,9.533
	C62.855,13.151,64.686,3.701,58.246,3.299z M72.375,3.729H71.25l0.459-2.138h-3.15l-0.5,2.138h-1.264c0,0,0.139-0.889,0.318-1.067
	c0.236-0.236,0.848-0.236,0.848-0.236l0.359-1.679c0,0-2.607-0.25-3.426,0.416c-1.055,0.832-1.25,2.482-1.25,2.512h-1.303
	l-0.516,2.04h1.416l-1.664,6.938h3.273l1.555-6.938h1.207l-1.082,4.927c-0.084,0.526,0.027,0.998,0.348,1.43
	c0.5,0.65,1.109,0.583,1.359,0.583h2.359l0.541-2.304c0,0-1.098,0.151-1.277-0.069c-0.152-0.194-0.041-0.458,0-0.681l0.875-3.803
	h1.139L72.375,3.729z M16.117,0.51h-4.815l-3.22,6.73L7.833,0.51H2.962L0.27,12.666h3.581l1.65-6.578l0.125,6.578h2.525l3.275-6.578
	l-1.443,6.578h3.428L16.117,0.51z M74.469,6.088c1.68,0,1.68-2.497,0-2.497C72.791,3.591,72.791,6.088,74.469,6.088z M19.961,0.51
	h-3.164l-0.416,1.846h3.219L19.961,0.51z"/>
</svg>
