<?xml version="1.0" encoding="UTF-8" standalone="no"?>
<!-- Created with Inkscape (http://www.inkscape.org/) -->

<svg
   xmlns:dc="http://purl.org/dc/elements/1.1/"
   xmlns:cc="http://creativecommons.org/ns#"
   xmlns:rdf="http://www.w3.org/1999/02/22-rdf-syntax-ns#"
   xmlns:svg="http://www.w3.org/2000/svg"
   xmlns="http://www.w3.org/2000/svg"
   xmlns:sodipodi="http://sodipodi.sourceforge.net/DTD/sodipodi-0.dtd"
   xmlns:inkscape="http://www.inkscape.org/namespaces/inkscape"
   id="svg2"
   version="1.1"
   inkscape:version="0.48.0 r9654"
   width="1417.3229"
   height="1062.9921"
   xml:space="preserve"
   sodipodi:docname="iimb.svg"><metadata
     id="metadata8"><rdf:RDF><cc:Work
         rdf:about=""><dc:format>image/svg+xml</dc:format><dc:type
           rdf:resource="http://purl.org/dc/dcmitype/StillImage" /><dc:title></dc:title></cc:Work></rdf:RDF></metadata><defs
     id="defs6"><linearGradient
       x1="0"
       y1="0"
       x2="1"
       y2="0"
       gradientUnits="userSpaceOnUse"
       gradientTransform="matrix(71.91496,0,0,9.06123,518.29,554.8096)"
       spreadMethod="pad"
       id="linearGradient84"><stop
         style="stop-opacity:1;stop-color:#f9c830"
         offset="0"
         id="stop86" /><stop
         style="stop-opacity:1;stop-color:#ffffff"
         offset="1"
         id="stop88" /></linearGradient></defs><sodipodi:namedview
     pagecolor="#ffffff"
     bordercolor="#666666"
     borderopacity="1"
     objecttolerance="10"
     gridtolerance="10"
     guidetolerance="10"
     inkscape:pageopacity="0"
     inkscape:pageshadow="2"
     inkscape:window-width="1280"
     inkscape:window-height="752"
     id="namedview4"
     showgrid="false"
     inkscape:zoom="2.1649824"
     inkscape:cx="659.3845"
     inkscape:cy="706.22638"
     inkscape:window-x="0"
     inkscape:window-y="0"
     inkscape:window-maximized="0"
     inkscape:current-layer="g10" /><g
     id="g10"
     inkscape:groupmode="layer"
     inkscape:label="html5"
     transform="matrix(1.25,0,0,-1.25,0,1062.9921)"><g
       id="g3157"><g
         id="g74"><g
           id="g76"><g
             id="g82"><path
               id="path90"
               style="fill:url(#linearGradient84);stroke:none"
               d="m 590.205,554.8099 -71.915,0 0,9.0609 71.915,0 0,-9.0609 z" /></g></g></g><path
         id="path92"
         style="fill:#f28537;fill-opacity:1;fill-rule:nonzero;stroke:none"
         d="m 518.5318,594.2968 0,-28.6509 3.1728,0 0,17.5462 3.475,-5.4389 0,-12.1073 3.0218,0 0,27.3614 -3.0218,0 0,-9.7396 -6.6478,11.0291 z" /><path
         id="path94"
         style="fill:#f28537;fill-opacity:1;fill-rule:nonzero;stroke:none"
         d="m 533.867,593.0073 c 0,0 -4.5791,-5.8742 -2.115,-13.2145 1.2838,-3.3996 4.5567,-8.7656 -0.0757,-14.1469 l 4.0037,0 c 0,0 2.3505,4.3991 1.4352,8.481 -0.8065,3.5345 -6.3454,10.6517 0.0754,17.9793 0.7557,0.8308 0.7557,0.9011 0.7557,0.9011 l -4.0793,0 z" /><path
         id="path96"
         style="fill:#f28537;fill-opacity:1;fill-rule:nonzero;stroke:none"
         d="m 563.8212,593.0073 -4.2261,0 c 0,0 -12.3299,-12.0912 -0.2444,-27.3614 4.4912,0.0822 4.4912,0 4.4912,0 0,0 -15.1478,12.2751 -0.0207,27.3614" /><path
         id="path98"
         style="fill:#f28537;fill-opacity:1;fill-rule:nonzero;stroke:none"
         d="m 575.3432,593.0073 -8.7063,0 0,-18.8079 -4.3226,0 1.7476,-2.8508 2.575,0 c 0,0 -0.506,-5.3807 2.9432,-5.7027 3.1263,-0.1834 5.7631,0 5.7631,0 l 0,2.9438 -4.6139,0 c 0,0 -1.3332,0.0456 -0.9193,2.575 5.4714,0 5.5332,0 5.5332,0 l 0,2.9888 -5.5794,0 0,15.772 5.5794,0 0,3.0818 z" /><path
         id="path100"
         style="fill:#f28537;fill-opacity:1;fill-rule:nonzero;stroke:none"
         d="m 578.3624,593.0073 0.0456,-23.8198 c 0,0 0.2296,-3.3112 3.2191,-3.5416 3.1733,-0.0454 5.0125,0 5.0125,0 l 0,2.9894 -3.5941,-0.0133 c 0,0 -1.5026,-0.1128 -1.5559,1.2149 0,1.3799 0,23.1704 0,23.1704 l -3.1272,0 z" /><path
         id="path102"
         style="fill:#f28537;fill-opacity:1;fill-rule:nonzero;stroke:none"
         d="m 552.0827,570.8472 c -0.0408,2.7357 -1.7963,2.9806 -2.4905,3.1433 -0.2526,0.0595 -0.3788,0.0862 -0.4397,0.0964 0.0981,0.1505 1.7816,2.734 2.3289,4.026 0.0837,0.1973 0.2526,0.9256 0.2835,1.086 2.3448,12.2856 -9.6279,15.0871 -9.6279,15.0871 l 0,-20.0681 -4.3049,0 1.722,-2.782 2.7153,0 0,-5.79 3.0359,0 0,5.5684 c 0,0 2.0824,0.0816 2.9396,0 0.8574,-0.0811 0.735,-0.8164 0.735,-0.8164 l 0,-15.556 3.1028,0 c 0,0 -0.0403,13.2696 0,16.0053 z m -6.7666,3.3707 0,14.9023 c 8.6108,-7.7494 0,-14.9023 0,-14.9023" /><path
         id="path104"
         style="fill:#231f20;fill-opacity:1;fill-rule:nonzero;stroke:none"
         d="m 532.9196,558.0692 -0.464,0 0,3.7528 0.464,0 0,-3.7528 z" /><path
         id="path106"
         style="fill:#231f20;fill-opacity:1;fill-rule:nonzero;stroke:none"
         d="m 535.7803,558.0692 -0.4164,0 0,0.2848 c -0.1204,-0.1131 -0.246,-0.2018 -0.3773,-0.2647 -0.1312,-0.0632 -0.2738,-0.0947 -0.4286,-0.0947 -0.2979,0 -0.5343,0.1247 -0.7092,0.3742 -0.1749,0.2494 -0.2625,0.5953 -0.2625,1.0375 0,0.2301 0.0301,0.4351 0.0905,0.6151 0.0603,0.1794 0.1425,0.3325 0.2466,0.4592 0.1009,0.1236 0.2185,0.2171 0.3529,0.282 0.1341,0.0647 0.2735,0.0976 0.4187,0.0976 0.1318,0 0.248,-0.0153 0.3492,-0.0451 0.1006,-0.0301 0.2075,-0.0765 0.3197,-0.14 l 0,1.1795 0.4164,0 0,-3.7854 z m -0.4164,0.6684 0,1.5539 c -0.1139,0.0553 -0.2154,0.093 -0.3053,0.1143 -0.0892,0.0207 -0.1862,0.0314 -0.2902,0.0314 -0.2359,0 -0.4195,-0.0887 -0.5505,-0.2667 -0.131,-0.178 -0.1965,-0.43 -0.1965,-0.7569 0,-0.3211 0.0505,-0.566 0.1514,-0.733 0.1006,-0.1675 0.2636,-0.2509 0.4881,-0.2509 0.1188,0 0.2393,0.0284 0.3615,0.0856 0.1219,0.0579 0.2358,0.1318 0.3415,0.2223" /><path
         id="path108"
         style="fill:#231f20;fill-opacity:1;fill-rule:nonzero;stroke:none"
         d="m 538.685,559.3805 -1.8337,0 c 0,-0.167 0.0232,-0.3124 0.0694,-0.4366 0.0465,-0.1244 0.1094,-0.2259 0.1888,-0.3058 0.0777,-0.0777 0.1698,-0.1358 0.2761,-0.1749 0.1063,-0.0391 0.2234,-0.0584 0.3518,-0.0584 0.1686,0 0.3384,0.0368 0.5097,0.1111 0.1712,0.074 0.2931,0.1466 0.3662,0.2186 l 0.0218,0 0,-0.4992 c -0.1409,-0.0647 -0.2849,-0.1191 -0.4314,-0.1627 -0.1471,-0.0437 -0.3013,-0.0655 -0.4635,-0.0655 -0.4121,0 -0.7336,0.1219 -0.9649,0.3651 -0.231,0.2443 -0.3464,0.5904 -0.3464,1.0392 0,0.4442 0.1108,0.7962 0.3322,1.0573 0.2214,0.2608 0.5128,0.3915 0.8748,0.3915 0.3359,0 0.5947,-0.1072 0.7764,-0.3209 0.1817,-0.2135 0.2727,-0.5173 0.2727,-0.9111 l 0,-0.2477 z m -0.4039,0.3484 c -0.002,0.2415 -0.057,0.4277 -0.1661,0.5601 -0.1089,0.1321 -0.2753,0.1978 -0.5001,0.1978 -0.2242,0 -0.4033,-0.0722 -0.5366,-0.2179 -0.1332,-0.1446 -0.2089,-0.3252 -0.227,-0.54 l 1.4298,0 z" /><path
         id="path110"
         style="fill:#231f20;fill-opacity:1;fill-rule:nonzero;stroke:none"
         d="m 541.2597,558.0692 -0.4161,0 0,0.2917 c -0.0377,-0.0281 -0.0879,-0.0667 -0.1514,-0.1163 -0.0629,-0.0499 -0.1239,-0.0887 -0.1822,-0.1182 -0.0698,-0.0377 -0.15,-0.0689 -0.241,-0.0944 -0.0913,-0.0249 -0.1973,-0.0374 -0.3189,-0.0374 -0.2242,0 -0.4138,0.0811 -0.5698,0.2438 -0.1559,0.163 -0.2335,0.3702 -0.2335,0.6228 0,0.2063 0.0399,0.3739 0.1204,0.5014 0.0803,0.1279 0.1959,0.2282 0.3467,0.3019 0.1511,0.0729 0.3328,0.1225 0.5454,0.1485 0.2126,0.0258 0.4408,0.0457 0.6843,0.0587 l 0,0.0712 c 0,0.1048 -0.0167,0.1916 -0.0502,0.261 -0.0334,0.0684 -0.0816,0.1228 -0.1451,0.1625 -0.0584,0.0374 -0.1296,0.0629 -0.2132,0.0759 -0.0836,0.0131 -0.1712,0.0196 -0.2619,0.0196 -0.1089,0 -0.231,-0.0165 -0.3665,-0.049 -0.1361,-0.0335 -0.2761,-0.0806 -0.4204,-0.1435 l -0.0221,0 0,0.466 c 0.0828,0.0244 0.2012,0.0511 0.3557,0.0805 0.1542,0.0295 0.3062,0.0443 0.4556,0.0443 0.1754,0 0.3285,-0.0165 0.4592,-0.0482 0.1309,-0.0315 0.2435,-0.0859 0.3376,-0.1616 0.0944,-0.0754 0.1658,-0.1721 0.2146,-0.2908 0.0484,-0.1188 0.0728,-0.2659 0.0728,-0.4411 l 0,-1.8493 z m -0.4161,0.6689 0,0.7606 c -0.1281,-0.008 -0.2778,-0.0204 -0.4502,-0.0369 -0.1723,-0.0164 -0.3086,-0.0399 -0.409,-0.0708 -0.1196,-0.0375 -0.2168,-0.0959 -0.2911,-0.1749 -0.0743,-0.0791 -0.1114,-0.1883 -0.1114,-0.3266 0,-0.1567 0.0428,-0.2744 0.1284,-0.3538 0.0856,-0.079 0.2166,-0.1182 0.3932,-0.1182 0.1471,0 0.2814,0.0309 0.4028,0.0939 0.1213,0.0626 0.2335,0.1383 0.3373,0.2267" /><path
         id="path112"
         style="fill:#231f20;fill-opacity:1;fill-rule:nonzero;stroke:none"
         d="m 544.1414,558.0842 c -0.0799,-0.0227 -0.1664,-0.0408 -0.2594,-0.0556 -0.0929,-0.0141 -0.1766,-0.0215 -0.25,-0.0215 -0.2559,0 -0.4507,0.0748 -0.5839,0.2242 -0.133,0.1497 -0.1993,0.3895 -0.1993,0.7197 l 0,1.4491 -0.28,0 0,0.3855 0.28,0 0,0.7829 0.4161,0 0,-0.7829 0.8765,0 0,-0.3855 -0.8765,0 0,-1.2447 c 0,-0.1437 0.003,-0.2557 0.009,-0.3365 0.006,-0.0805 0.0267,-0.1556 0.063,-0.2262 0.0328,-0.0646 0.0782,-0.1122 0.1357,-0.1428 0.0576,-0.0301 0.1463,-0.0451 0.2668,-0.0451 0.0689,0 0.1411,0.011 0.2157,0.0326 0.0748,0.0215 0.129,0.04 0.1619,0.0547 l 0.0246,0 0,-0.4079 z" /><path
         id="path114"
         style="fill:#231f20;fill-opacity:1;fill-rule:nonzero;stroke:none"
         d="m 546.7657,559.4261 c 0,-0.4422 -0.1037,-0.7917 -0.3109,-1.0477 -0.2081,-0.2559 -0.4859,-0.3838 -0.8345,-0.3838 -0.3521,0 -0.6313,0.1279 -0.838,0.3838 -0.2066,0.256 -0.3101,0.6055 -0.3101,1.0477 0,0.4422 0.1035,0.7914 0.3101,1.0485 0.2067,0.2566 0.4859,0.3856 0.838,0.3856 0.3486,0 0.6264,-0.129 0.8345,-0.3856 0.2072,-0.2571 0.3109,-0.6063 0.3109,-1.0485 z m -0.4351,0 c 0,0.3498 -0.0626,0.6103 -0.1876,0.7804 -0.125,0.1704 -0.2985,0.2554 -0.5216,0.2554 -0.2257,0 -0.4014,-0.085 -0.5264,-0.2554 -0.1253,-0.1701 -0.1877,-0.4306 -0.1877,-0.7804 0,-0.3393 0.063,-0.5958 0.1888,-0.7713 0.1259,-0.1749 0.3011,-0.2622 0.5253,-0.2622 0.2208,0 0.3946,0.0862 0.5204,0.2597 0.1262,0.1734 0.1888,0.4314 0.1888,0.7738" /><path
         id="path116"
         style="fill:#231f20;fill-opacity:1;fill-rule:nonzero;stroke:none"
         d="m 553.9221,558.0692 -0.4638,0 0,3.7528 0.4638,0 0,-3.7528 z" /><path
         id="path118"
         style="fill:#231f20;fill-opacity:1;fill-rule:nonzero;stroke:none"
         d="m 558.3926,558.0692 -0.4167,0 0,1.546 c 0,0.1165 -0.004,0.2293 -0.013,0.3382 -0.009,0.108 -0.0301,0.1947 -0.0624,0.2596 -0.034,0.07 -0.0831,0.1222 -0.1463,0.1582 -0.0632,0.0354 -0.1559,0.0536 -0.2778,0.0536 -0.1167,0 -0.2341,-0.0324 -0.3512,-0.0961 -0.1168,-0.0638 -0.2344,-0.1455 -0.3537,-0.2441 0.005,-0.0374 0.009,-0.0808 0.0127,-0.1301 0.003,-0.0499 0.005,-0.0989 0.005,-0.1471 l 0,-1.7382 -0.4162,0 0,1.546 c 0,0.1196 -0.005,0.2336 -0.0147,0.3418 -0.01,0.1075 -0.0309,0.1936 -0.0632,0.2586 -0.0343,0.07 -0.0825,0.1221 -0.146,0.1567 -0.0632,0.0349 -0.1551,0.0525 -0.2753,0.0525 -0.1148,0 -0.2301,-0.0307 -0.3452,-0.0925 -0.1154,-0.0615 -0.2293,-0.14 -0.3427,-0.2358 l 0,-2.0273 -0.4167,0 0,2.7164 0.4167,0 0,-0.3016 c 0.1295,0.1182 0.2594,0.2103 0.39,0.2764 0.1301,0.066 0.2682,0.0998 0.4139,0.0998 0.1686,0 0.3121,-0.0392 0.43,-0.1165 0.1185,-0.0777 0.2066,-0.1857 0.265,-0.3232 0.1687,0.1551 0.3226,0.2673 0.4621,0.3362 0.1397,0.0683 0.2891,0.1035 0.4481,0.1035 0.2725,0 0.4734,-0.0908 0.6033,-0.2713 0.1298,-0.1806 0.1947,-0.4332 0.1947,-0.7572 l 0,-1.7625 z" /><path
         id="path120"
         style="fill:#231f20;fill-opacity:1;fill-rule:nonzero;stroke:none"
         d="m 561.3945,559.4556 c 0,-0.2211 -0.0292,-0.4235 -0.087,-0.6066 -0.0579,-0.1826 -0.1398,-0.3371 -0.2455,-0.4641 -0.0978,-0.1201 -0.2135,-0.2134 -0.3473,-0.2792 -0.1335,-0.066 -0.2755,-0.0986 -0.4254,-0.0986 -0.129,0 -0.2461,0.0153 -0.3513,0.0462 -0.1046,0.0309 -0.212,0.0788 -0.3211,0.1434 l 0,-1.1282 -0.4164,0 0,3.7171 0.4164,0 0,-0.2866 c 0.1105,0.1021 0.2361,0.1882 0.3764,0.2571 0.1403,0.0689 0.2894,0.1041 0.4476,0.1041 0.2996,0 0.5338,-0.1242 0.7016,-0.3722 0.1675,-0.2481 0.252,-0.5925 0.252,-1.0324 z m -0.4351,-0.0128 c 0,0.3291 -0.0513,0.5752 -0.154,0.7376 -0.1023,0.163 -0.2605,0.2444 -0.4736,0.2444 -0.1199,0 -0.2424,-0.0287 -0.3648,-0.0857 -0.1231,-0.0572 -0.2399,-0.1315 -0.3501,-0.2245 l 0,-1.5463 c 0.1185,-0.0586 0.2205,-0.098 0.3064,-0.1196 0.085,-0.0212 0.1823,-0.0312 0.2914,-0.0312 0.2344,0 0.417,0.0862 0.5482,0.2586 0.1307,0.1726 0.1965,0.428 0.1965,0.7667" /><path
         id="path122"
         style="fill:#231f20;fill-opacity:1;fill-rule:nonzero;stroke:none"
         d="m 562.4592,558.0692 -0.4164,0 0,3.7854 0.4164,0 0,-3.7854 z" /><path
         id="path124"
         style="fill:#231f20;fill-opacity:1;fill-rule:nonzero;stroke:none"
         d="m 565.3769,559.3805 -1.8335,0 c 0,-0.167 0.0233,-0.3124 0.0692,-0.4366 0.0462,-0.1244 0.1091,-0.2259 0.1888,-0.3058 0.0777,-0.0777 0.1698,-0.1358 0.2764,-0.1749 0.106,-0.0391 0.2231,-0.0584 0.3515,-0.0584 0.1683,0 0.3387,0.0368 0.5099,0.1111 0.1709,0.074 0.2931,0.1466 0.366,0.2186 l 0.0221,0 0,-0.4992 c -0.1412,-0.0647 -0.2852,-0.1191 -0.432,-0.1627 -0.1466,-0.0437 -0.3008,-0.0655 -0.4635,-0.0655 -0.4116,0 -0.7333,0.1219 -0.9646,0.3651 -0.231,0.2443 -0.3464,0.5904 -0.3464,1.0392 0,0.4442 0.1105,0.7962 0.3322,1.0573 0.2214,0.2608 0.5131,0.3915 0.8748,0.3915 0.3362,0 0.5947,-0.1072 0.7767,-0.3209 0.1814,-0.2135 0.2724,-0.5173 0.2724,-0.9111 l 0,-0.2477 z m -0.404,0.3484 c -0.001,0.2415 -0.0569,0.4277 -0.1658,0.5601 -0.1091,0.1321 -0.2758,0.1978 -0.5003,0.1978 -0.2239,0 -0.4031,-0.0722 -0.5363,-0.2179 -0.1341,-0.1446 -0.2089,-0.3252 -0.2271,-0.54 l 1.4295,0 z" /><path
         id="path126"
         style="fill:#231f20;fill-opacity:1;fill-rule:nonzero;stroke:none"
         d="m 569.6425,558.0692 -0.4165,0 0,1.546 c 0,0.1165 -0.005,0.2293 -0.0133,0.3382 -0.009,0.108 -0.03,0.1947 -0.0621,0.2596 -0.0343,0.07 -0.083,0.1222 -0.1465,0.1582 -0.0635,0.0354 -0.1562,0.0536 -0.2778,0.0536 -0.1168,0 -0.2341,-0.0324 -0.3509,-0.0961 -0.1171,-0.0638 -0.2347,-0.1455 -0.3535,-0.2441 0.005,-0.0374 0.009,-0.0808 0.0122,-0.1301 0.003,-0.0499 0.005,-0.0989 0.005,-0.1471 l 0,-1.7382 -0.4167,0 0,1.546 c 0,0.1196 -0.005,0.2336 -0.0147,0.3418 -0.009,0.1075 -0.0306,0.1936 -0.063,0.2586 -0.0343,0.07 -0.0825,0.1221 -0.1457,0.1567 -0.0635,0.0349 -0.1553,0.0525 -0.2752,0.0525 -0.1148,0 -0.2305,-0.0307 -0.3453,-0.0925 -0.1153,-0.0615 -0.2296,-0.14 -0.343,-0.2358 l 0,-2.0273 -0.4164,0 0,2.7164 0.4164,0 0,-0.3016 c 0.1296,0.1182 0.2594,0.2103 0.3898,0.2764 0.1307,0.066 0.2684,0.0998 0.4144,0.0998 0.1684,0 0.3118,-0.0392 0.43,-0.1165 0.1182,-0.0777 0.2067,-0.1857 0.2645,-0.3232 0.169,0.1551 0.3232,0.2673 0.4626,0.3362 0.1395,0.0683 0.2892,0.1035 0.4479,0.1035 0.2721,0 0.4734,-0.0908 0.6032,-0.2713 0.1298,-0.1806 0.1948,-0.4332 0.1948,-0.7572 l 0,-1.7625 z" /><path
         id="path128"
         style="fill:#231f20;fill-opacity:1;fill-rule:nonzero;stroke:none"
         d="m 572.5321,559.3805 -1.8335,0 c 0,-0.167 0.0233,-0.3124 0.0695,-0.4366 0.0462,-0.1244 0.1091,-0.2259 0.1885,-0.3058 0.0782,-0.0777 0.1704,-0.1358 0.2761,-0.1749 0.1066,-0.0391 0.2239,-0.0584 0.3521,-0.0584 0.1686,0 0.3384,0.0368 0.5093,0.1111 0.1715,0.074 0.2934,0.1466 0.3666,0.2186 l 0.0218,0 0,-0.4992 c -0.1412,-0.0647 -0.2849,-0.1191 -0.4317,-0.1627 -0.1469,-0.0437 -0.3014,-0.0655 -0.4632,-0.0655 -0.4125,0 -0.7336,0.1219 -0.9646,0.3651 -0.2313,0.2443 -0.347,0.5904 -0.347,1.0392 0,0.4442 0.1106,0.7962 0.3325,1.0573 0.2214,0.2608 0.5128,0.3915 0.8748,0.3915 0.3356,0 0.5947,-0.1072 0.7767,-0.3209 0.1811,-0.2135 0.2721,-0.5173 0.2721,-0.9111 l 0,-0.2477 z m -0.4039,0.3484 c -0.002,0.2415 -0.0567,0.4277 -0.1662,0.5601 -0.1085,0.1321 -0.2752,0.1978 -0.4997,0.1978 -0.2245,0 -0.4031,-0.0722 -0.5369,-0.2179 -0.1329,-0.1446 -0.2089,-0.3252 -0.2268,-0.54 l 1.4296,0 z" /><path
         id="path130"
         style="fill:#231f20;fill-opacity:1;fill-rule:nonzero;stroke:none"
         d="m 575.25,558.0692 -0.4162,0 0,1.546 c 0,0.1247 -0.006,0.2418 -0.0198,0.3515 -0.0131,0.1088 -0.0377,0.1947 -0.0734,0.2559 -0.0377,0.0684 -0.0916,0.1194 -0.1616,0.1523 -0.0703,0.0334 -0.1607,0.0499 -0.2721,0.0499 -0.116,0 -0.2367,-0.0307 -0.3623,-0.0925 -0.1261,-0.0615 -0.246,-0.14 -0.36,-0.2358 l 0,-2.0273 -0.4164,0 0,2.7164 0.4164,0 0,-0.3022 c 0.1295,0.1177 0.2648,0.2104 0.4045,0.277 0.1403,0.066 0.284,0.0998 0.4317,0.0998 0.2702,0 0.4757,-0.0891 0.6168,-0.2651 0.1415,-0.1766 0.2124,-0.4314 0.2124,-0.7634 l 0,-1.7625 z" /><path
         id="path132"
         style="fill:#231f20;fill-opacity:1;fill-rule:nonzero;stroke:none"
         d="m 577.3479,558.0842 c -0.08,-0.0227 -0.1667,-0.0408 -0.2597,-0.0556 -0.093,-0.0141 -0.176,-0.0215 -0.2497,-0.0215 -0.2563,0 -0.451,0.0748 -0.5842,0.2242 -0.1327,0.1497 -0.199,0.3895 -0.199,0.7197 l 0,1.4491 -0.2798,0 0,0.3855 0.2798,0 0,0.7829 0.4161,0 0,-0.7829 0.8765,0 0,-0.3855 -0.8765,0 0,-1.2447 c 0,-0.1437 0.003,-0.2557 0.009,-0.3365 0.006,-0.0805 0.0269,-0.1556 0.0629,-0.2262 0.0329,-0.0646 0.078,-0.1122 0.1355,-0.1428 0.0578,-0.0301 0.1466,-0.0451 0.267,-0.0451 0.0689,0 0.1409,0.011 0.216,0.0326 0.0746,0.0215 0.1287,0.04 0.1616,0.0547 l 0.0247,0 0,-0.4079 z" /><path
         id="path134"
         style="fill:#231f20;fill-opacity:1;fill-rule:nonzero;stroke:none"
         d="m 579.7919,558.0692 -0.4164,0 0,0.2917 c -0.0374,-0.0281 -0.0879,-0.0667 -0.1508,-0.1163 -0.0632,-0.0499 -0.1244,-0.0887 -0.1826,-0.1182 -0.07,-0.0377 -0.1502,-0.0689 -0.2415,-0.0944 -0.0907,-0.0249 -0.197,-0.0374 -0.3189,-0.0374 -0.2236,0 -0.4133,0.0811 -0.5694,0.2438 -0.1557,0.163 -0.2336,0.3702 -0.2336,0.6228 0,0.2063 0.0402,0.3739 0.1204,0.5014 0.0803,0.1279 0.1959,0.2282 0.347,0.3019 0.1511,0.0729 0.3325,0.1225 0.5451,0.1485 0.2129,0.0258 0.4408,0.0457 0.6843,0.0587 l 0,0.0712 c 0,0.1048 -0.017,0.1916 -0.0499,0.261 -0.0334,0.0684 -0.0819,0.1228 -0.1454,0.1625 -0.0584,0.0374 -0.1293,0.0629 -0.2132,0.0759 -0.0836,0.0131 -0.1709,0.0196 -0.2619,0.0196 -0.1086,0 -0.2307,-0.0165 -0.3665,-0.049 -0.1358,-0.0335 -0.2758,-0.0806 -0.4204,-0.1435 l -0.0221,0 0,0.466 c 0.083,0.0244 0.2015,0.0511 0.3557,0.0805 0.1542,0.0295 0.3065,0.0443 0.4556,0.0443 0.1757,0 0.3288,-0.0165 0.4595,-0.0482 0.1309,-0.0315 0.2432,-0.0859 0.3376,-0.1616 0.0941,-0.0754 0.1658,-0.1721 0.2146,-0.2908 0.0487,-0.1188 0.0728,-0.2659 0.0728,-0.4411 l 0,-1.8493 z m -0.4164,0.6689 0,0.7606 c -0.1278,-0.008 -0.2778,-0.0204 -0.4499,-0.0369 -0.1723,-0.0164 -0.3089,-0.0399 -0.409,-0.0708 -0.1196,-0.0375 -0.2169,-0.0959 -0.2911,-0.1749 -0.0746,-0.0791 -0.1117,-0.1883 -0.1117,-0.3266 0,-0.1567 0.0428,-0.2744 0.1284,-0.3538 0.0856,-0.079 0.2169,-0.1182 0.3929,-0.1182 0.1474,0 0.2818,0.0309 0.4031,0.0939 0.121,0.0626 0.2338,0.1383 0.3373,0.2267" /><path
         id="path136"
         style="fill:#231f20;fill-opacity:1;fill-rule:nonzero;stroke:none"
         d="m 581.8856,558.0842 c -0.08,-0.0227 -0.1667,-0.0408 -0.2597,-0.0556 -0.093,-0.0141 -0.1763,-0.0215 -0.2497,-0.0215 -0.2563,0 -0.451,0.0748 -0.5837,0.2242 -0.1332,0.1497 -0.1998,0.3895 -0.1998,0.7197 l 0,1.4491 -0.2795,0 0,0.3855 0.2795,0 0,0.7829 0.4164,0 0,-0.7829 0.8765,0 0,-0.3855 -0.8765,0 0,-1.2447 c 0,-0.1437 0.003,-0.2557 0.009,-0.3365 0.006,-0.0805 0.0266,-0.1556 0.0629,-0.2262 0.0329,-0.0646 0.078,-0.1122 0.1358,-0.1428 0.0575,-0.0301 0.1465,-0.0451 0.2667,-0.0451 0.0689,0 0.1409,0.011 0.2158,0.0326 0.0751,0.0215 0.1286,0.04 0.1618,0.0547 l 0.0247,0 0,-0.4079 z" /><path
         id="path138"
         style="fill:#231f20;fill-opacity:1;fill-rule:nonzero;stroke:none"
         d="m 582.8318,561.2454 -0.466,0 0,0.4722 0.466,0 0,-0.4722 z m -0.0247,-3.1762 -0.4164,0 0,2.7164 0.4164,0 0,-2.7164 z" /><path
         id="path140"
         style="fill:#231f20;fill-opacity:1;fill-rule:nonzero;stroke:none"
         d="m 585.762,559.4261 c 0,-0.4422 -0.1041,-0.7917 -0.3116,-1.0477 -0.2075,-0.2559 -0.4855,-0.3838 -0.8339,-0.3838 -0.3518,0 -0.6313,0.1279 -0.8379,0.3838 -0.2067,0.256 -0.3102,0.6055 -0.3102,1.0477 0,0.4422 0.1035,0.7914 0.3102,1.0485 0.2066,0.2566 0.4861,0.3856 0.8379,0.3856 0.3484,0 0.6264,-0.129 0.8339,-0.3856 0.2075,-0.2571 0.3116,-0.6063 0.3116,-1.0485 z m -0.4352,0 c 0,0.3498 -0.0623,0.6103 -0.1873,0.7804 -0.1253,0.1704 -0.2994,0.2554 -0.5219,0.2554 -0.2259,0 -0.4017,-0.085 -0.5267,-0.2554 -0.1253,-0.1701 -0.1873,-0.4306 -0.1873,-0.7804 0,-0.3393 0.0629,-0.5958 0.1887,-0.7713 0.1259,-0.1749 0.3008,-0.2622 0.5253,-0.2622 0.2211,0 0.3949,0.0862 0.5204,0.2597 0.1259,0.1734 0.1888,0.4314 0.1888,0.7738" /><path
         id="path142"
         style="fill:#231f20;fill-opacity:1;fill-rule:nonzero;stroke:none"
         d="m 588.4937,558.0692 -0.4161,0 0,1.546 c 0,0.1247 -0.007,0.2418 -0.0202,0.3515 -0.0127,0.1088 -0.0374,0.1947 -0.0731,0.2559 -0.038,0.0684 -0.0915,0.1194 -0.1621,0.1523 -0.07,0.0334 -0.1605,0.0499 -0.2716,0.0499 -0.1159,0 -0.2372,-0.0307 -0.3623,-0.0925 -0.1261,-0.0615 -0.246,-0.14 -0.3605,-0.2358 l 0,-2.0273 -0.4161,0 0,2.7164 0.4161,0 0,-0.3022 c 0.1301,0.1177 0.265,0.2104 0.4051,0.277 0.1397,0.066 0.2834,0.0998 0.4317,0.0998 0.2698,0 0.4751,-0.0891 0.6171,-0.2651 0.1414,-0.1766 0.212,-0.4314 0.212,-0.7634 l 0,-1.7625 z" /></g></g></svg>